<?xml version="1.0" encoding="utf-8"?>
<!-- Generator: Adobe Illustrator 16.0.0, SVG Export Plug-In . SVG Version: 6.00 Build 0)  -->
<!DOCTYPE svg PUBLIC "-//W3C//DTD SVG 1.1//EN" "http://www.w3.org/Graphics/SVG/1.1/DTD/svg11.dtd">
<svg version="1.1" id="Layer_1" xmlns="http://www.w3.org/2000/svg" xmlns:xlink="http://www.w3.org/1999/xlink" x="0px" y="0px"
	 width="32px" height="32px" viewBox="0 0 32 32" enable-background="new 0 0 32 32" xml:space="preserve">
<path d="M29.429,13.762H7.942l5.17-5.17c0.441-0.441,0.649-0.967,0.649-1.544c0-1.101-0.91-2.238-2.239-2.238
	c-0.594,0-1.112,0.216-1.544,0.649l-8.905,8.906C0.707,14.731,0.333,15.184,0.333,16c0,0.815,0.312,1.209,0.723,1.62l8.923,8.921
	c0.432,0.434,0.95,0.65,1.544,0.65c1.33,0,2.239-1.137,2.239-2.238c0-0.578-0.208-1.104-0.649-1.544l-5.17-5.171h21.486
	c1.234,0,2.238-1.004,2.238-2.238C31.667,14.765,30.663,13.762,29.429,13.762z"/>
</svg>
